<svg width="1920" height="531" viewBox="0 0 1920 531" fill="none" xmlns="http://www.w3.org/2000/svg">
<rect width="1920" height="531" rx="30" fill="url(#paint0_linear_98_177)"/>
<path d="M601.88 176.4H661.144C661.656 176.4 661.997 176.613 662.168 177.04C662.424 177.381 662.381 177.765 662.04 178.192L652.568 190.608C651.459 191.973 650.051 192.656 648.344 192.656H616.728V213.136H648.728C649.752 213.136 650.264 213.648 650.264 214.672V227.728C650.264 228.837 649.752 229.392 648.728 229.392H616.728V264.464C616.728 265.488 616.173 266 615.064 266H601.88C601.453 266 601.069 265.872 600.728 265.616C600.472 265.275 600.344 264.891 600.344 264.464V177.936C600.344 177.509 600.472 177.168 600.728 176.912C601.069 176.571 601.453 176.4 601.88 176.4ZM673.755 176.144H686.939C687.366 176.144 687.707 176.315 687.963 176.656C688.304 176.912 688.475 177.253 688.475 177.68V233.104C688.475 235.408 688.859 237.627 689.627 239.76C690.48 241.808 691.59 243.685 692.955 245.392C694.406 247.013 696.112 248.336 698.075 249.36C700.038 250.384 702.171 251.024 704.475 251.28C707.12 251.536 709.595 251.237 711.899 250.384C714.288 249.531 716.336 248.293 718.043 246.672C719.835 245.051 721.243 243.131 722.267 240.912C723.291 238.608 723.803 236.176 723.803 233.616V177.68C723.803 177.253 723.974 176.912 724.315 176.656C724.656 176.315 725.04 176.144 725.467 176.144H738.523C738.95 176.144 739.291 176.315 739.547 176.656C739.888 176.912 740.059 177.253 740.059 177.68V233.616C740.059 238.224 739.163 242.576 737.371 246.672C735.664 250.768 733.318 254.352 730.331 257.424C727.344 260.496 723.803 262.971 719.707 264.848C715.696 266.64 711.387 267.579 706.779 267.664C702 267.749 697.52 266.896 693.339 265.104C689.158 263.227 685.488 260.709 682.331 257.552C679.174 254.309 676.699 250.597 674.907 246.416C673.115 242.149 672.219 237.627 672.219 232.848V177.68C672.219 177.253 672.347 176.912 672.603 176.656C672.944 176.315 673.328 176.144 673.755 176.144ZM760.005 176.4H773.189C774.298 176.4 774.853 176.912 774.853 177.936V249.744H810.693C811.205 249.744 811.546 249.957 811.717 250.384C811.973 250.811 811.973 251.195 811.717 251.536L802.117 263.952C801.008 265.317 799.642 266 798.021 266H760.005C759.578 266 759.194 265.872 758.853 265.616C758.597 265.275 758.469 264.891 758.469 264.464V177.936C758.469 177.509 758.597 177.168 758.853 176.912C759.194 176.571 759.578 176.4 760.005 176.4ZM823.38 176.4H836.564C837.673 176.4 838.228 176.912 838.228 177.936V249.744H874.068C874.58 249.744 874.921 249.957 875.092 250.384C875.348 250.811 875.348 251.195 875.092 251.536L865.492 263.952C864.383 265.317 863.017 266 861.396 266H823.38C822.953 266 822.569 265.872 822.228 265.616C821.972 265.275 821.844 264.891 821.844 264.464V177.936C821.844 177.509 821.972 177.168 822.228 176.912C822.569 176.571 822.953 176.4 823.38 176.4ZM918.662 202.64C918.662 198.629 919.473 194.917 921.094 191.504C922.801 188.091 925.062 185.147 927.878 182.672C930.779 180.197 934.107 178.235 937.862 176.784C941.702 175.333 945.755 174.608 950.022 174.608C956.678 174.608 962.438 175.803 967.302 178.192C972.251 180.496 975.963 183.184 978.438 186.256C979.035 187.024 978.993 187.707 978.31 188.304L969.478 197.52C969.137 197.861 968.71 198.032 968.198 198.032C967.771 198.032 967.387 197.819 967.046 197.392C966.278 196.539 965.297 195.685 964.102 194.832C962.993 193.979 961.67 193.211 960.134 192.528C958.683 191.76 957.105 191.163 955.398 190.736C953.691 190.309 951.942 190.096 950.15 190.096C948.017 190.096 946.054 190.437 944.262 191.12C942.555 191.717 941.105 192.528 939.91 193.552C938.715 194.576 937.777 195.771 937.094 197.136C936.411 198.501 936.07 199.952 936.07 201.488C936.07 203.963 936.881 206.096 938.502 207.888C940.123 209.68 942.555 210.917 945.798 211.6L958.342 214.032C962.438 214.8 966.022 216.037 969.094 217.744C972.251 219.365 974.854 221.328 976.902 223.632C979.035 225.936 980.657 228.539 981.766 231.44C982.875 234.256 983.43 237.243 983.43 240.4C983.43 243.813 982.705 247.184 981.254 250.512C979.889 253.84 977.798 256.827 974.982 259.472C972.251 262.117 968.881 264.251 964.87 265.872C960.859 267.408 956.251 268.176 951.046 268.176C947.377 268.176 943.921 267.792 940.678 267.024C937.521 266.256 934.619 265.275 931.974 264.08C929.414 262.8 927.153 261.435 925.19 259.984C923.227 258.448 921.606 256.955 920.326 255.504C919.729 254.907 919.729 254.224 920.326 253.456L928.39 243.088C928.646 242.661 928.987 242.448 929.414 242.448C929.926 242.363 930.353 242.491 930.694 242.832C931.889 243.941 933.211 245.093 934.662 246.288C936.113 247.397 937.691 248.421 939.398 249.36C941.105 250.299 942.939 251.067 944.902 251.664C946.865 252.261 948.955 252.56 951.174 252.56C955.867 252.56 959.451 251.536 961.926 249.488C964.401 247.44 965.638 244.795 965.638 241.552C965.638 238.992 964.699 236.773 962.822 234.896C961.03 232.933 958.342 231.611 954.758 230.928L942.214 228.368C935.046 226.917 929.329 223.973 925.062 219.536C920.795 215.099 918.662 209.467 918.662 202.64ZM991.989 177.68C991.989 177.253 992.117 176.912 992.373 176.656C992.714 176.315 993.098 176.144 993.525 176.144H1049.08C1050.78 176.144 1052.19 176.827 1053.3 178.192L1062.77 190.608C1063.11 191.035 1063.16 191.461 1062.9 191.888C1062.73 192.229 1062.39 192.4 1061.88 192.4H1033.33V264.208C1033.33 265.232 1032.82 265.744 1031.8 265.744H1018.61C1017.59 265.744 1017.08 265.232 1017.08 264.208V192.4H993.525C993.098 192.4 992.714 192.272 992.373 192.016C992.117 191.675 991.989 191.291 991.989 190.864V177.68ZM1072.97 264.464V177.936C1072.97 177.509 1073.1 177.168 1073.35 176.912C1073.69 176.571 1074.08 176.4 1074.51 176.4H1086.67C1088.37 176.4 1089.78 177.083 1090.89 178.448L1156.81 264.208C1157.07 264.635 1157.07 265.061 1156.81 265.488C1156.64 265.829 1156.3 266 1155.79 266H1139.53C1137.82 266 1136.41 265.317 1135.31 263.952L1113.16 235.024L1090.89 263.952C1089.78 265.317 1088.37 266 1086.67 266H1074.51C1074.08 266 1073.69 265.872 1073.35 265.616C1073.1 265.275 1072.97 264.891 1072.97 264.464ZM1089.35 204.048V238.352L1102.54 221.2L1089.35 204.048ZM1156.76 220.816C1156.76 214.245 1157.95 208.144 1160.34 202.512C1162.82 196.88 1166.1 191.973 1170.2 187.792C1174.38 183.611 1179.29 180.368 1184.92 178.064C1190.55 175.675 1196.61 174.523 1203.1 174.608C1210.01 174.693 1216.37 176.101 1222.17 178.832C1228.06 181.563 1233.13 185.317 1237.4 190.096C1237.66 190.437 1237.74 190.821 1237.66 191.248C1237.66 191.675 1237.49 192.016 1237.14 192.272L1227.03 200.848C1226.69 201.104 1226.31 201.232 1225.88 201.232C1225.45 201.147 1225.11 200.933 1224.86 200.592C1222.04 197.349 1218.71 194.789 1214.87 192.912C1211.03 190.949 1206.89 190.011 1202.46 190.096C1198.45 190.181 1194.65 191.077 1191.06 192.784C1187.48 194.405 1184.37 196.667 1181.72 199.568C1179.07 202.384 1176.98 205.669 1175.45 209.424C1173.91 213.179 1173.14 217.189 1173.14 221.456C1173.14 225.723 1173.95 229.733 1175.58 233.488C1177.2 237.243 1179.37 240.528 1182.1 243.344C1184.83 246.16 1187.99 248.379 1191.58 250C1195.16 251.536 1199 252.304 1203.1 252.304C1207.36 252.219 1211.37 251.237 1215.13 249.36C1218.88 247.483 1222.13 244.923 1224.86 241.68C1225.11 241.339 1225.45 241.168 1225.88 241.168C1226.31 241.083 1226.69 241.211 1227.03 241.552L1237.14 250.128C1237.49 250.384 1237.66 250.725 1237.66 251.152C1237.74 251.579 1237.66 251.963 1237.4 252.304C1233.05 257.168 1227.89 261.008 1221.91 263.824C1215.94 266.555 1209.41 267.877 1202.33 267.792C1195.93 267.792 1189.91 266.597 1184.28 264.208C1178.73 261.733 1173.91 258.405 1169.82 254.224C1165.72 249.957 1162.52 244.965 1160.22 239.248C1157.91 233.531 1156.76 227.387 1156.76 220.816ZM1273.6 220.304L1305.73 178.448C1306.84 177.083 1308.24 176.4 1309.95 176.4H1326.21C1326.72 176.4 1327.06 176.613 1327.23 177.04C1327.49 177.381 1327.49 177.765 1327.23 178.192L1294.21 221.2L1327.1 264.208C1327.44 264.635 1327.49 265.061 1327.23 265.488C1327.06 265.829 1326.72 266 1326.21 266H1309.95C1308.24 266 1306.84 265.317 1305.73 263.952L1273.6 222.224C1273.17 221.541 1273.17 220.901 1273.6 220.304ZM1252.09 177.936C1252.09 177.509 1252.22 177.168 1252.48 176.912C1252.82 176.571 1253.2 176.4 1253.63 176.4H1266.81C1267.92 176.4 1268.48 176.912 1268.48 177.936V264.464C1268.48 265.488 1267.92 266 1266.81 266H1253.63C1253.2 266 1252.82 265.872 1252.48 265.616C1252.22 265.275 1252.09 264.891 1252.09 264.464V177.936Z" fill="#302E2E"/>
<mask id="path-3-outside-1_98_177" maskUnits="userSpaceOnUse" x="597" y="288" width="741" height="98" fill="black">
<rect fill="white" x="597" y="288" width="741" height="98"/>
<path d="M599.969 293.936C599.969 293.509 600.097 293.168 600.353 292.912C600.694 292.571 601.078 292.4 601.505 292.4H630.049C636.193 292.4 641.953 293.552 647.329 295.856C652.705 298.16 657.398 301.317 661.409 305.328C665.42 309.253 668.62 313.904 671.009 319.28C673.484 324.571 674.764 330.245 674.849 336.304C675.02 342.619 673.868 348.549 671.393 354.096C669.004 359.643 665.718 364.507 661.537 368.688C657.356 372.784 652.449 376.027 646.817 378.416C641.27 380.805 635.34 382 629.025 382H601.505C601.078 382 600.694 381.872 600.353 381.616C600.097 381.275 599.969 380.891 599.969 380.464V293.936ZM616.353 365.744H630.049C633.974 365.744 637.644 365.019 641.057 363.568C644.556 362.032 647.585 359.984 650.145 357.424C652.79 354.779 654.838 351.749 656.289 348.336C657.825 344.837 658.593 341.125 658.593 337.2C658.593 333.275 657.825 329.605 656.289 326.192C654.838 322.693 652.79 319.664 650.145 317.104C647.585 314.459 644.556 312.411 641.057 310.96C637.644 309.424 633.974 308.656 630.049 308.656H616.353V365.744ZM689.719 293.936C689.719 293.509 689.847 293.168 690.103 292.912C690.444 292.571 690.828 292.4 691.255 292.4H746.551C747.575 292.4 748.087 292.912 748.087 293.936V307.12C748.087 308.144 747.575 308.656 746.551 308.656H706.103V329.136H738.103C739.127 329.136 739.639 329.648 739.639 330.672V343.728C739.639 344.837 739.127 345.392 738.103 345.392H706.103V365.744H750.519C751.031 365.744 751.372 365.957 751.543 366.384C751.799 366.811 751.756 367.195 751.415 367.536L741.943 379.952C740.834 381.317 739.426 382 737.719 382H691.255C690.828 382 690.444 381.872 690.103 381.616C689.847 381.275 689.719 380.891 689.719 380.464V293.936ZM765.38 292.144H778.564C778.991 292.144 779.375 292.315 779.716 292.656C780.057 292.912 780.228 293.253 780.228 293.68V354.096L826.18 294.192C827.289 292.827 828.697 292.144 830.404 292.144H846.66C847.172 292.144 847.513 292.357 847.684 292.784C847.94 293.211 847.94 293.595 847.684 293.936L781.764 379.696C780.655 381.061 779.247 381.744 777.54 381.744H765.38C764.953 381.744 764.569 381.616 764.228 381.36C763.972 381.019 763.844 380.635 763.844 380.208V293.68C763.844 293.253 763.972 292.912 764.228 292.656C764.569 292.315 764.953 292.144 765.38 292.144ZM857.844 293.936C857.844 293.509 857.972 293.168 858.228 292.912C858.569 292.571 858.953 292.4 859.38 292.4H914.676C915.7 292.4 916.212 292.912 916.212 293.936V307.12C916.212 308.144 915.7 308.656 914.676 308.656H874.228V329.136H906.228C907.252 329.136 907.764 329.648 907.764 330.672V343.728C907.764 344.837 907.252 345.392 906.228 345.392H874.228V365.744H918.644C919.156 365.744 919.497 365.957 919.668 366.384C919.924 366.811 919.881 367.195 919.54 367.536L910.068 379.952C908.959 381.317 907.551 382 905.844 382H859.38C858.953 382 858.569 381.872 858.228 381.616C857.972 381.275 857.844 380.891 857.844 380.464V293.936ZM933.505 292.4H946.689C947.798 292.4 948.353 292.912 948.353 293.936V365.744H984.193C984.705 365.744 985.046 365.957 985.217 366.384C985.473 366.811 985.473 367.195 985.217 367.536L975.617 379.952C974.508 381.317 973.142 382 971.521 382H933.505C933.078 382 932.694 381.872 932.353 381.616C932.097 381.275 931.969 380.891 931.969 380.464V293.936C931.969 293.509 932.097 293.168 932.353 292.912C932.694 292.571 933.078 292.4 933.505 292.4ZM991.76 336.816C991.76 330.245 992.955 324.144 995.344 318.512C997.819 312.795 1001.1 307.888 1005.2 303.792C1009.38 299.611 1014.29 296.368 1019.92 294.064C1025.55 291.675 1031.61 290.523 1038.1 290.608C1044.58 290.693 1050.64 291.973 1056.27 294.448C1061.9 296.923 1066.77 300.293 1070.86 304.56C1075.05 308.827 1078.33 313.819 1080.72 319.536C1083.11 325.168 1084.26 331.184 1084.18 337.584C1084.09 344.069 1082.81 350.128 1080.34 355.76C1077.86 361.392 1074.49 366.299 1070.22 370.48C1066.04 374.661 1061.14 377.947 1055.5 380.336C1049.87 382.64 1043.81 383.792 1037.33 383.792C1030.93 383.792 1024.91 382.597 1019.28 380.208C1013.73 377.733 1008.91 374.405 1004.82 370.224C1000.72 365.957 997.52 360.965 995.216 355.248C992.912 349.531 991.76 343.387 991.76 336.816ZM1008.14 337.456C1008.14 341.637 1008.95 345.605 1010.58 349.36C1012.2 353.115 1014.37 356.4 1017.1 359.216C1019.83 362.032 1022.99 364.251 1026.58 365.872C1030.16 367.493 1034 368.304 1038.1 368.304C1042.11 368.219 1045.9 367.323 1049.49 365.616C1053.07 363.909 1056.19 361.648 1058.83 358.832C1061.56 355.931 1063.7 352.603 1065.23 348.848C1066.77 345.008 1067.49 340.997 1067.41 336.816C1067.41 332.635 1066.6 328.667 1064.98 324.912C1063.35 321.157 1061.18 317.915 1058.45 315.184C1055.72 312.368 1052.52 310.149 1048.85 308.528C1045.26 306.907 1041.47 306.096 1037.46 306.096C1033.45 306.181 1029.65 307.077 1026.06 308.784C1022.48 310.405 1019.37 312.667 1016.72 315.568C1014.07 318.384 1011.98 321.669 1010.45 325.424C1008.91 329.179 1008.14 333.189 1008.14 337.456ZM1098.84 380.208V293.68C1098.84 293.253 1098.97 292.912 1099.23 292.656C1099.57 292.315 1099.95 292.144 1100.38 292.144H1167.96C1168.39 292.144 1168.73 292.315 1168.99 292.656C1169.33 292.912 1169.5 293.253 1169.5 293.68V312.496C1169.5 313.691 1169.12 314.757 1168.35 315.696L1149.66 340.144C1148.55 341.509 1147.14 342.192 1145.44 342.192H1129.18C1128.67 342.192 1128.28 342.021 1128.03 341.68C1127.86 341.253 1127.94 340.827 1128.28 340.4L1152.86 308.4H1115.23V380.208C1115.23 381.232 1114.67 381.744 1113.56 381.744H1100.38C1099.95 381.744 1099.57 381.616 1099.23 381.36C1098.97 381.019 1098.84 380.635 1098.84 380.208ZM1182.84 293.936C1182.84 293.509 1182.97 293.168 1183.23 292.912C1183.57 292.571 1183.95 292.4 1184.38 292.4H1239.68C1240.7 292.4 1241.21 292.912 1241.21 293.936V307.12C1241.21 308.144 1240.7 308.656 1239.68 308.656H1199.23V329.136H1231.23C1232.25 329.136 1232.76 329.648 1232.76 330.672V343.728C1232.76 344.837 1232.25 345.392 1231.23 345.392H1199.23V365.744H1243.64C1244.16 365.744 1244.5 365.957 1244.67 366.384C1244.92 366.811 1244.88 367.195 1244.54 367.536L1235.07 379.952C1233.96 381.317 1232.55 382 1230.84 382H1184.38C1183.95 382 1183.57 381.872 1183.23 381.616C1182.97 381.275 1182.84 380.891 1182.84 380.464V293.936ZM1256.97 293.68C1256.97 293.253 1257.1 292.912 1257.35 292.656C1257.69 292.315 1258.08 292.144 1258.51 292.144H1326.09C1326.52 292.144 1326.86 292.315 1327.11 292.656C1327.45 292.912 1327.62 293.253 1327.62 293.68V312.496C1327.62 313.691 1327.24 314.757 1326.47 315.696L1306.25 342.192L1335.18 379.952C1335.43 380.379 1335.43 380.805 1335.18 381.232C1335.01 381.573 1334.71 381.744 1334.28 381.744H1318.03C1316.32 381.744 1314.91 381.061 1313.8 379.696L1285.77 343.216C1285.17 342.533 1285.17 341.893 1285.77 341.296L1310.99 308.4H1273.35V380.208C1273.35 381.232 1272.8 381.744 1271.69 381.744H1258.51C1258.08 381.744 1257.69 381.616 1257.35 381.36C1257.1 381.019 1256.97 380.635 1256.97 380.208V293.68Z"/>
</mask>
<path d="M600.353 292.912L598.939 291.498L598.939 291.498L600.353 292.912ZM647.329 295.856L646.541 297.694L646.541 297.694L647.329 295.856ZM661.409 305.328L659.995 306.742L660.002 306.75L660.01 306.757L661.409 305.328ZM671.009 319.28L669.181 320.092L669.189 320.11L669.197 320.127L671.009 319.28ZM674.849 336.304L672.849 336.332L672.849 336.345L672.85 336.358L674.849 336.304ZM671.393 354.096L669.567 353.281L669.561 353.293L669.556 353.305L671.393 354.096ZM661.537 368.688L662.937 370.117L662.944 370.11L662.951 370.102L661.537 368.688ZM646.817 378.416L646.036 376.575L646.026 376.579L646.817 378.416ZM600.353 381.616L598.753 382.816L598.924 383.045L599.153 383.216L600.353 381.616ZM616.353 365.744H614.353V367.744H616.353V365.744ZM641.057 363.568L641.839 365.409L641.85 365.404L641.861 365.399L641.057 363.568ZM650.145 357.424L651.559 358.838L651.559 358.838L650.145 357.424ZM656.289 348.336L654.458 347.532L654.453 347.543L654.448 347.554L656.289 348.336ZM656.289 326.192L654.442 326.958L654.453 326.986L654.465 327.013L656.289 326.192ZM650.145 317.104L648.708 318.495L648.731 318.518L648.754 318.541L650.145 317.104ZM641.057 310.96L640.236 312.784L640.263 312.796L640.291 312.807L641.057 310.96ZM616.353 308.656V306.656H614.353V308.656H616.353ZM599.969 293.936H601.969C601.969 293.922 601.971 293.974 601.938 294.062C601.902 294.157 601.843 294.251 601.767 294.326L600.353 292.912L598.939 291.498C598.241 292.195 597.969 293.081 597.969 293.936H599.969ZM600.353 292.912L601.767 294.326C601.79 294.304 601.772 294.328 601.709 294.356C601.642 294.386 601.567 294.4 601.505 294.4V292.4V290.4C600.477 290.4 599.601 290.835 598.939 291.498L600.353 292.912ZM601.505 292.4V294.4H630.049V292.4V290.4H601.505V292.4ZM630.049 292.4V294.4C635.936 294.4 641.427 295.502 646.541 297.694L647.329 295.856L648.117 294.018C642.479 291.602 636.45 290.4 630.049 290.4V292.4ZM647.329 295.856L646.541 297.694C651.691 299.901 656.17 302.917 659.995 306.742L661.409 305.328L662.823 303.914C658.627 299.718 653.719 296.419 648.117 294.018L647.329 295.856ZM661.409 305.328L660.01 306.757C663.831 310.497 666.89 314.936 669.181 320.092L671.009 319.28L672.837 318.468C670.35 312.872 667.008 308.009 662.808 303.899L661.409 305.328ZM671.009 319.28L669.197 320.127C671.547 325.152 672.768 330.546 672.849 336.332L674.849 336.304L676.849 336.276C676.76 329.945 675.42 323.99 672.821 318.433L671.009 319.28ZM674.849 336.304L672.85 336.358C673.013 342.386 671.914 348.019 669.567 353.281L671.393 354.096L673.219 354.911C675.821 349.08 677.027 342.851 676.848 336.25L674.849 336.304ZM671.393 354.096L669.556 353.305C667.265 358.624 664.121 363.275 660.123 367.274L661.537 368.688L662.951 370.102C667.315 365.738 670.743 360.661 673.23 354.887L671.393 354.096ZM661.537 368.688L660.137 367.259C656.143 371.173 651.448 374.279 646.036 376.575L646.817 378.416L647.598 380.257C653.45 377.775 658.569 374.395 662.937 370.117L661.537 368.688ZM646.817 378.416L646.026 376.579C640.74 378.856 635.08 380 629.025 380V382V384C635.599 384 641.8 382.755 647.608 380.253L646.817 378.416ZM629.025 382V380H601.505V382V384H629.025V382ZM601.505 382V380C601.499 380 601.499 380 601.505 380C601.511 380.001 601.52 380.003 601.529 380.007C601.539 380.01 601.547 380.014 601.553 380.016C601.558 380.019 601.558 380.02 601.553 380.016L600.353 381.616L599.153 383.216C599.841 383.732 600.646 384 601.505 384V382ZM600.353 381.616L601.953 380.416C601.949 380.411 601.95 380.411 601.953 380.416C601.955 380.422 601.959 380.43 601.962 380.44C601.966 380.449 601.968 380.458 601.969 380.464C601.969 380.47 601.969 380.47 601.969 380.464H599.969H597.969C597.969 381.323 598.237 382.128 598.753 382.816L600.353 381.616ZM599.969 380.464H601.969V293.936H599.969H597.969V380.464H599.969ZM616.353 365.744V367.744H630.049V365.744V363.744H616.353V365.744ZM630.049 365.744V367.744C634.227 367.744 638.164 366.971 641.839 365.409L641.057 363.568L640.275 361.727C637.123 363.067 633.721 363.744 630.049 363.744V365.744ZM641.057 363.568L641.861 365.399C645.574 363.769 648.814 361.584 651.559 358.838L650.145 357.424L648.731 356.01C646.356 358.384 643.537 360.295 640.253 361.737L641.057 363.568ZM650.145 357.424L651.559 358.838C654.384 356.013 656.578 352.77 658.13 349.118L656.289 348.336L654.448 347.554C653.099 350.729 651.196 353.544 648.731 356.01L650.145 357.424ZM656.289 348.336L658.12 349.14C659.771 345.381 660.593 341.394 660.593 337.2H658.593H656.593C656.593 340.856 655.879 344.294 654.458 347.532L656.289 348.336ZM658.593 337.2H660.593C660.593 333.006 659.771 329.055 658.113 325.371L656.289 326.192L654.465 327.013C655.879 330.155 656.593 333.544 656.593 337.2H658.593ZM656.289 326.192L658.136 325.426C656.584 321.682 654.383 318.422 651.536 315.667L650.145 317.104L648.754 318.541C651.197 320.905 653.092 323.704 654.442 326.958L656.289 326.192ZM650.145 317.104L651.582 315.713C648.827 312.866 645.567 310.665 641.823 309.113L641.057 310.96L640.291 312.807C643.545 314.157 646.344 316.052 648.708 318.495L650.145 317.104ZM641.057 310.96L641.878 309.136C638.194 307.478 634.243 306.656 630.049 306.656V308.656V310.656C633.705 310.656 637.094 311.37 640.236 312.784L641.057 310.96ZM630.049 308.656V306.656H616.353V308.656V310.656H630.049V308.656ZM616.353 308.656H614.353V365.744H616.353H618.353V308.656H616.353ZM690.103 292.912L688.689 291.498L688.689 291.498L690.103 292.912ZM706.103 308.656V306.656H704.103V308.656H706.103ZM706.103 329.136H704.103V331.136H706.103V329.136ZM706.103 345.392V343.392H704.103V345.392H706.103ZM706.103 365.744H704.103V367.744H706.103V365.744ZM751.543 366.384L749.686 367.127L749.746 367.276L749.828 367.413L751.543 366.384ZM751.415 367.536L750.001 366.122L749.906 366.216L749.825 366.323L751.415 367.536ZM741.943 379.952L743.495 381.213L743.515 381.189L743.533 381.165L741.943 379.952ZM690.103 381.616L688.503 382.816L688.674 383.045L688.903 383.216L690.103 381.616ZM689.719 293.936H691.719C691.719 293.922 691.721 293.974 691.688 294.062C691.652 294.157 691.593 294.251 691.517 294.326L690.103 292.912L688.689 291.498C687.991 292.195 687.719 293.081 687.719 293.936H689.719ZM690.103 292.912L691.517 294.326C691.54 294.304 691.522 294.328 691.459 294.356C691.392 294.386 691.317 294.4 691.255 294.4V292.4V290.4C690.227 290.4 689.351 290.835 688.689 291.498L690.103 292.912ZM691.255 292.4V294.4H746.551V292.4V290.4H691.255V292.4ZM746.551 292.4V294.4C746.755 294.4 746.54 294.45 746.289 294.198C746.037 293.947 746.087 293.732 746.087 293.936H748.087H750.087C750.087 293.116 749.881 292.133 749.117 291.37C748.354 290.606 747.371 290.4 746.551 290.4V292.4ZM748.087 293.936H746.087V307.12H748.087H750.087V293.936H748.087ZM748.087 307.12H746.087C746.087 307.324 746.037 307.109 746.289 306.858C746.54 306.606 746.755 306.656 746.551 306.656V308.656V310.656C747.371 310.656 748.354 310.45 749.117 309.686C749.881 308.923 750.087 307.94 750.087 307.12H748.087ZM746.551 308.656V306.656H706.103V308.656V310.656H746.551V308.656ZM706.103 308.656H704.103V329.136H706.103H708.103V308.656H706.103ZM706.103 329.136V331.136H738.103V329.136V327.136H706.103V329.136ZM738.103 329.136V331.136C738.307 331.136 738.092 331.186 737.841 330.934C737.589 330.683 737.639 330.468 737.639 330.672H739.639H741.639C741.639 329.852 741.433 328.869 740.669 328.106C739.906 327.342 738.923 327.136 738.103 327.136V329.136ZM739.639 330.672H737.639V343.728H739.639H741.639V330.672H739.639ZM739.639 343.728H737.639C737.639 344.012 737.57 343.853 737.785 343.619C737.892 343.503 738.011 343.437 738.096 343.407C738.169 343.38 738.184 343.392 738.103 343.392V345.392V347.392C738.966 347.392 739.969 347.151 740.725 346.333C741.452 345.545 741.639 344.553 741.639 343.728H739.639ZM738.103 345.392V343.392H706.103V345.392V347.392H738.103V345.392ZM706.103 345.392H704.103V365.744H706.103H708.103V345.392H706.103ZM706.103 365.744V367.744H750.519V365.744V363.744H706.103V365.744ZM750.519 365.744V367.744C750.501 367.744 750.322 367.739 750.099 367.6C749.86 367.451 749.735 367.25 749.686 367.127L751.543 366.384L753.4 365.641C753.18 365.092 752.799 364.571 752.219 364.208C751.655 363.855 751.049 363.744 750.519 363.744V365.744ZM751.543 366.384L749.828 367.413C749.796 367.36 749.676 367.126 749.715 366.771C749.756 366.409 749.932 366.19 750.001 366.122L751.415 367.536L752.829 368.95C753.239 368.54 753.608 367.959 753.691 367.213C753.773 366.474 753.546 365.835 753.258 365.355L751.543 366.384ZM751.415 367.536L749.825 366.323L740.353 378.739L741.943 379.952L743.533 381.165L753.005 368.749L751.415 367.536ZM741.943 379.952L740.391 378.691C739.648 379.605 738.802 380 737.719 380V382V384C740.049 384 742.02 383.029 743.495 381.213L741.943 379.952ZM737.719 382V380H691.255V382V384H737.719V382ZM691.255 382V380C691.249 380 691.249 380 691.255 380C691.261 380.001 691.27 380.003 691.279 380.007C691.289 380.01 691.297 380.014 691.303 380.016C691.308 380.019 691.308 380.02 691.303 380.016L690.103 381.616L688.903 383.216C689.591 383.732 690.396 384 691.255 384V382ZM690.103 381.616L691.703 380.416C691.699 380.411 691.7 380.411 691.703 380.416C691.705 380.422 691.709 380.43 691.712 380.44C691.716 380.449 691.718 380.458 691.719 380.464C691.719 380.47 691.719 380.47 691.719 380.464H689.719H687.719C687.719 381.323 687.987 382.128 688.503 382.816L690.103 381.616ZM689.719 380.464H691.719V293.936H689.719H687.719V380.464H689.719ZM779.716 292.656L778.302 294.07L778.402 294.171L778.516 294.256L779.716 292.656ZM780.228 354.096H778.228V359.989L781.815 355.313L780.228 354.096ZM826.18 294.192L824.628 292.931L824.61 292.953L824.593 292.975L826.18 294.192ZM847.684 292.784L845.827 293.527L845.887 293.676L845.969 293.813L847.684 292.784ZM847.684 293.936L849.27 295.155L849.277 295.145L849.284 295.136L847.684 293.936ZM781.764 379.696L783.316 380.957L783.333 380.936L783.35 380.915L781.764 379.696ZM764.228 381.36L762.628 382.56L762.799 382.789L763.028 382.96L764.228 381.36ZM764.228 292.656L765.642 294.07L765.642 294.07L764.228 292.656ZM765.38 292.144V294.144H778.564V292.144V290.144H765.38V292.144ZM778.564 292.144V294.144C778.502 294.144 778.427 294.13 778.36 294.1C778.297 294.072 778.279 294.048 778.302 294.07L779.716 292.656L781.13 291.242C780.468 290.579 779.592 290.144 778.564 290.144V292.144ZM779.716 292.656L778.516 294.256C778.468 294.22 778.38 294.137 778.311 293.998C778.242 293.86 778.228 293.74 778.228 293.68H780.228H782.228C782.228 292.624 781.761 291.69 780.916 291.056L779.716 292.656ZM780.228 293.68H778.228V354.096H780.228H782.228V293.68H780.228ZM780.228 354.096L781.815 355.313L827.767 295.409L826.18 294.192L824.593 292.975L778.641 352.879L780.228 354.096ZM826.18 294.192L827.732 295.453C828.475 294.539 829.321 294.144 830.404 294.144V292.144V290.144C828.074 290.144 826.103 291.115 824.628 292.931L826.18 294.192ZM830.404 292.144V294.144H846.66V292.144V290.144H830.404V292.144ZM846.66 292.144V294.144C846.642 294.144 846.463 294.139 846.24 294C846.001 293.851 845.876 293.65 845.827 293.527L847.684 292.784L849.541 292.041C849.321 291.492 848.94 290.971 848.36 290.608C847.796 290.255 847.19 290.144 846.66 290.144V292.144ZM847.684 292.784L845.969 293.813C845.965 293.806 845.876 293.655 845.876 293.392C845.876 293.103 845.983 292.871 846.084 292.736L847.684 293.936L849.284 295.136C849.641 294.66 849.876 294.065 849.876 293.392C849.876 292.745 849.659 292.189 849.399 291.755L847.684 292.784ZM847.684 293.936L846.098 292.717L780.178 378.477L781.764 379.696L783.35 380.915L849.27 295.155L847.684 293.936ZM781.764 379.696L780.212 378.435C779.469 379.349 778.623 379.744 777.54 379.744V381.744V383.744C779.87 383.744 781.841 382.773 783.316 380.957L781.764 379.696ZM777.54 381.744V379.744H765.38V381.744V383.744H777.54V381.744ZM765.38 381.744V379.744C765.374 379.744 765.374 379.744 765.38 379.744C765.386 379.745 765.395 379.747 765.404 379.751C765.414 379.754 765.422 379.758 765.428 379.76C765.433 379.763 765.433 379.764 765.428 379.76L764.228 381.36L763.028 382.96C763.716 383.476 764.521 383.744 765.38 383.744V381.744ZM764.228 381.36L765.828 380.16C765.824 380.155 765.825 380.155 765.828 380.16C765.83 380.166 765.834 380.174 765.837 380.184C765.841 380.193 765.843 380.202 765.844 380.208C765.844 380.214 765.844 380.214 765.844 380.208H763.844H761.844C761.844 381.067 762.112 381.872 762.628 382.56L764.228 381.36ZM763.844 380.208H765.844V293.68H763.844H761.844V380.208H763.844ZM763.844 293.68H765.844C765.844 293.666 765.846 293.718 765.813 293.806C765.777 293.901 765.718 293.995 765.642 294.07L764.228 292.656L762.814 291.242C762.116 291.939 761.844 292.825 761.844 293.68H763.844ZM764.228 292.656L765.642 294.07C765.665 294.048 765.647 294.072 765.584 294.1C765.517 294.13 765.442 294.144 765.38 294.144V292.144V290.144C764.352 290.144 763.476 290.579 762.814 291.242L764.228 292.656ZM858.228 292.912L856.814 291.498L856.814 291.498L858.228 292.912ZM874.228 308.656V306.656H872.228V308.656H874.228ZM874.228 329.136H872.228V331.136H874.228V329.136ZM874.228 345.392V343.392H872.228V345.392H874.228ZM874.228 365.744H872.228V367.744H874.228V365.744ZM919.668 366.384L917.811 367.127L917.871 367.276L917.953 367.413L919.668 366.384ZM919.54 367.536L918.126 366.122L918.031 366.216L917.95 366.323L919.54 367.536ZM910.068 379.952L911.62 381.213L911.64 381.189L911.658 381.165L910.068 379.952ZM858.228 381.616L856.628 382.816L856.799 383.045L857.028 383.216L858.228 381.616ZM857.844 293.936H859.844C859.844 293.922 859.846 293.974 859.813 294.062C859.777 294.157 859.718 294.251 859.642 294.326L858.228 292.912L856.814 291.498C856.116 292.195 855.844 293.081 855.844 293.936H857.844ZM858.228 292.912L859.642 294.326C859.665 294.304 859.647 294.328 859.584 294.356C859.517 294.386 859.442 294.4 859.38 294.4V292.4V290.4C858.352 290.4 857.476 290.835 856.814 291.498L858.228 292.912ZM859.38 292.4V294.4H914.676V292.4V290.4H859.38V292.4ZM914.676 292.4V294.4C914.88 294.4 914.665 294.45 914.414 294.198C914.162 293.947 914.212 293.732 914.212 293.936H916.212H918.212C918.212 293.116 918.006 292.133 917.242 291.37C916.479 290.606 915.496 290.4 914.676 290.4V292.4ZM916.212 293.936H914.212V307.12H916.212H918.212V293.936H916.212ZM916.212 307.12H914.212C914.212 307.324 914.162 307.109 914.414 306.858C914.665 306.606 914.88 306.656 914.676 306.656V308.656V310.656C915.496 310.656 916.479 310.45 917.242 309.686C918.006 308.923 918.212 307.94 918.212 307.12H916.212ZM914.676 308.656V306.656H874.228V308.656V310.656H914.676V308.656ZM874.228 308.656H872.228V329.136H874.228H876.228V308.656H874.228ZM874.228 329.136V331.136H906.228V329.136V327.136H874.228V329.136ZM906.228 329.136V331.136C906.432 331.136 906.217 331.186 905.966 330.934C905.714 330.683 905.764 330.468 905.764 330.672H907.764H909.764C909.764 329.852 909.558 328.869 908.794 328.106C908.031 327.342 907.048 327.136 906.228 327.136V329.136ZM907.764 330.672H905.764V343.728H907.764H909.764V330.672H907.764ZM907.764 343.728H905.764C905.764 344.012 905.695 343.853 905.91 343.619C906.017 343.503 906.136 343.437 906.221 343.407C906.294 343.38 906.309 343.392 906.228 343.392V345.392V347.392C907.091 347.392 908.094 347.151 908.85 346.333C909.577 345.545 909.764 344.553 909.764 343.728H907.764ZM906.228 345.392V343.392H874.228V345.392V347.392H906.228V345.392ZM874.228 345.392H872.228V365.744H874.228H876.228V345.392H874.228ZM874.228 365.744V367.744H918.644V365.744V363.744H874.228V365.744ZM918.644 365.744V367.744C918.626 367.744 918.447 367.739 918.224 367.6C917.985 367.451 917.86 367.25 917.811 367.127L919.668 366.384L921.525 365.641C921.305 365.092 920.924 364.571 920.344 364.208C919.78 363.855 919.174 363.744 918.644 363.744V365.744ZM919.668 366.384L917.953 367.413C917.921 367.36 917.801 367.126 917.84 366.771C917.881 366.409 918.057 366.19 918.126 366.122L919.54 367.536L920.954 368.95C921.364 368.54 921.733 367.959 921.816 367.213C921.898 366.474 921.671 365.835 921.383 365.355L919.668 366.384ZM919.54 367.536L917.95 366.323L908.478 378.739L910.068 379.952L911.658 381.165L921.13 368.749L919.54 367.536ZM910.068 379.952L908.516 378.691C907.773 379.605 906.927 380 905.844 380V382V384C908.174 384 910.145 383.029 911.62 381.213L910.068 379.952ZM905.844 382V380H859.38V382V384H905.844V382ZM859.38 382V380C859.374 380 859.374 380 859.38 380C859.386 380.001 859.395 380.003 859.404 380.007C859.414 380.01 859.422 380.014 859.428 380.016C859.433 380.019 859.433 380.02 859.428 380.016L858.228 381.616L857.028 383.216C857.716 383.732 858.521 384 859.38 384V382ZM858.228 381.616L859.828 380.416C859.824 380.411 859.825 380.411 859.828 380.416C859.83 380.422 859.834 380.43 859.837 380.44C859.841 380.449 859.843 380.458 859.844 380.464C859.844 380.47 859.844 380.47 859.844 380.464H857.844H855.844C855.844 381.323 856.112 382.128 856.628 382.816L858.228 381.616ZM857.844 380.464H859.844V293.936H857.844H855.844V380.464H857.844ZM948.353 365.744H946.353V367.744H948.353V365.744ZM985.217 366.384L983.36 367.127L983.42 367.276L983.502 367.413L985.217 366.384ZM985.217 367.536L986.799 368.759L986.808 368.748L986.817 368.736L985.217 367.536ZM975.617 379.952L977.169 381.213L977.184 381.194L977.199 381.175L975.617 379.952ZM932.353 381.616L930.753 382.816L930.924 383.045L931.153 383.216L932.353 381.616ZM932.353 292.912L930.939 291.498L930.939 291.498L932.353 292.912ZM933.505 292.4V294.4H946.689V292.4V290.4H933.505V292.4ZM946.689 292.4V294.4C946.973 294.4 946.814 294.469 946.58 294.254C946.464 294.147 946.398 294.028 946.368 293.943C946.341 293.87 946.353 293.855 946.353 293.936H948.353H950.353C950.353 293.073 950.112 292.07 949.294 291.314C948.506 290.587 947.514 290.4 946.689 290.4V292.4ZM948.353 293.936H946.353V365.744H948.353H950.353V293.936H948.353ZM948.353 365.744V367.744H984.193V365.744V363.744H948.353V365.744ZM984.193 365.744V367.744C984.175 367.744 983.996 367.739 983.773 367.6C983.534 367.451 983.409 367.25 983.36 367.127L985.217 366.384L987.074 365.641C986.854 365.092 986.473 364.571 985.893 364.208C985.329 363.855 984.723 363.744 984.193 363.744V365.744ZM985.217 366.384L983.502 367.413C983.498 367.406 983.409 367.255 983.409 366.992C983.409 366.703 983.516 366.471 983.617 366.336L985.217 367.536L986.817 368.736C987.174 368.26 987.409 367.665 987.409 366.992C987.409 366.345 987.192 365.789 986.932 365.355L985.217 366.384ZM985.217 367.536L983.635 366.313L974.035 378.729L975.617 379.952L977.199 381.175L986.799 368.759L985.217 367.536ZM975.617 379.952L974.065 378.691C973.298 379.634 972.484 380 971.521 380V382V384C973.801 384 975.717 383.001 977.169 381.213L975.617 379.952ZM971.521 382V380H933.505V382V384H971.521V382ZM933.505 382V380C933.499 380 933.499 380 933.505 380C933.511 380.001 933.52 380.003 933.529 380.007C933.539 380.01 933.547 380.014 933.553 380.016C933.558 380.019 933.558 380.02 933.553 380.016L932.353 381.616L931.153 383.216C931.841 383.732 932.646 384 933.505 384V382ZM932.353 381.616L933.953 380.416C933.949 380.411 933.95 380.411 933.953 380.416C933.955 380.422 933.959 380.43 933.962 380.44C933.966 380.449 933.968 380.458 933.969 380.464C933.969 380.47 933.969 380.47 933.969 380.464H931.969H929.969C929.969 381.323 930.237 382.128 930.753 382.816L932.353 381.616ZM931.969 380.464H933.969V293.936H931.969H929.969V380.464H931.969ZM931.969 293.936H933.969C933.969 293.922 933.971 293.974 933.938 294.062C933.902 294.157 933.843 294.251 933.767 294.326L932.353 292.912L930.939 291.498C930.241 292.195 929.969 293.081 929.969 293.936H931.969ZM932.353 292.912L933.767 294.326C933.79 294.304 933.772 294.328 933.709 294.356C933.642 294.386 933.567 294.4 933.505 294.4V292.4V290.4C932.477 290.4 931.601 290.835 930.939 291.498L932.353 292.912ZM995.344 318.512L993.509 317.718L993.506 317.724L993.503 317.731L995.344 318.512ZM1005.2 303.792L1006.61 305.206L1006.61 305.206L1005.2 303.792ZM1019.92 294.064L1020.68 295.915L1020.69 295.91L1020.7 295.905L1019.92 294.064ZM1038.1 290.608L1038.07 292.608L1038.1 290.608ZM1056.27 294.448L1055.47 296.279L1055.47 296.279L1056.27 294.448ZM1070.86 304.56L1069.42 305.945L1069.43 305.952L1069.44 305.96L1070.86 304.56ZM1080.72 319.536L1078.87 320.307L1078.88 320.317L1080.72 319.536ZM1084.18 337.584L1082.18 337.557L1082.18 337.558L1084.18 337.584ZM1080.34 355.76L1082.17 356.565L1082.17 356.565L1080.34 355.76ZM1070.22 370.48L1068.82 369.052L1068.82 369.059L1068.81 369.066L1070.22 370.48ZM1055.5 380.336L1056.26 382.187L1056.27 382.182L1056.29 382.177L1055.5 380.336ZM1019.28 380.208L1018.47 382.034L1018.48 382.042L1018.5 382.049L1019.28 380.208ZM1004.82 370.224L1003.37 371.609L1003.38 371.616L1003.39 371.624L1004.82 370.224ZM995.216 355.248L993.361 355.996L993.361 355.996L995.216 355.248ZM1010.58 349.36L1008.74 350.153L1008.74 350.153L1010.58 349.36ZM1017.1 359.216L1018.54 357.824L1017.1 359.216ZM1026.58 365.872L1025.75 367.694L1025.75 367.694L1026.58 365.872ZM1038.1 368.304V370.304H1038.12L1038.14 370.304L1038.1 368.304ZM1049.49 365.616L1048.63 363.81L1048.63 363.81L1049.49 365.616ZM1058.83 358.832L1057.38 357.461L1057.37 357.463L1058.83 358.832ZM1065.23 348.848L1067.08 349.605L1067.09 349.598L1067.09 349.591L1065.23 348.848ZM1067.41 336.816H1065.41V336.836L1065.41 336.857L1067.41 336.816ZM1058.45 315.184L1057.01 316.576L1057.02 316.587L1057.03 316.598L1058.45 315.184ZM1048.85 308.528L1048.02 310.35L1048.03 310.354L1048.04 310.357L1048.85 308.528ZM1037.46 306.096V304.096H1037.43L1037.41 304.096L1037.46 306.096ZM1026.06 308.784L1026.89 310.606L1026.91 310.598L1026.92 310.59L1026.06 308.784ZM1016.72 315.568L1018.18 316.937L1018.19 316.926L1018.2 316.916L1016.72 315.568ZM1010.45 325.424L1012.3 326.181L1012.3 326.181L1010.45 325.424ZM991.76 336.816H993.76C993.76 330.494 994.908 324.66 997.185 319.293L995.344 318.512L993.503 317.731C991.001 323.628 989.76 329.997 989.76 336.816H991.76ZM995.344 318.512L997.179 319.306C999.562 313.803 1002.71 309.111 1006.61 305.206L1005.2 303.792L1003.79 302.378C999.499 306.665 996.076 311.787 993.509 317.718L995.344 318.512ZM1005.2 303.792L1006.61 305.206C1010.6 301.218 1015.28 298.122 1020.68 295.915L1019.92 294.064L1019.16 292.213C1013.29 294.614 1008.16 298.003 1003.79 302.378L1005.2 303.792ZM1019.92 294.064L1020.7 295.905C1026.06 293.631 1031.84 292.526 1038.07 292.608L1038.1 290.608L1038.12 288.608C1031.38 288.519 1025.04 289.719 1019.14 292.223L1019.92 294.064ZM1038.1 290.608L1038.07 292.608C1044.3 292.69 1050.09 293.918 1055.47 296.279L1056.27 294.448L1057.08 292.617C1051.19 290.029 1044.86 288.697 1038.12 288.608L1038.1 290.608ZM1056.27 294.448L1055.47 296.279C1060.87 298.653 1065.51 301.875 1069.42 305.945L1070.86 304.56L1072.31 303.175C1068.02 298.712 1062.94 295.193 1057.08 292.617L1056.27 294.448ZM1070.86 304.56L1069.44 305.96C1073.43 310.039 1076.58 314.815 1078.87 320.307L1080.72 319.536L1082.57 318.765C1080.08 312.822 1076.66 307.615 1072.29 303.16L1070.86 304.56ZM1080.72 319.536L1078.88 320.317C1081.15 325.682 1082.26 331.422 1082.18 337.557L1084.18 337.584L1086.18 337.611C1086.26 330.946 1085.06 324.654 1082.56 318.755L1080.72 319.536ZM1084.18 337.584L1082.18 337.558C1082.09 343.79 1080.87 349.582 1078.5 354.955L1080.34 355.76L1082.17 356.565C1084.76 350.674 1086.09 344.349 1086.18 337.61L1084.18 337.584ZM1080.34 355.76L1078.5 354.955C1076.13 360.361 1072.9 365.054 1068.82 369.052L1070.22 370.48L1071.62 371.908C1076.08 367.543 1079.59 362.423 1082.17 356.565L1080.34 355.76ZM1070.22 370.48L1068.81 369.066C1064.82 373.059 1060.13 376.202 1054.72 378.495L1055.5 380.336L1056.29 382.177C1062.15 379.691 1067.27 376.264 1071.64 371.894L1070.22 370.48ZM1055.5 380.336L1054.75 378.485C1049.37 380.684 1043.57 381.792 1037.33 381.792V383.792V385.792C1044.06 385.792 1050.37 384.596 1056.26 382.187L1055.5 380.336ZM1037.33 383.792V381.792C1031.18 381.792 1025.43 380.647 1020.06 378.367L1019.28 380.208L1018.5 382.049C1024.39 384.548 1030.67 385.792 1037.33 385.792V383.792ZM1019.28 380.208L1020.09 378.382C1014.77 376.005 1010.16 372.819 1006.24 368.824L1004.82 370.224L1003.39 371.624C1007.67 375.991 1012.7 379.461 1018.47 382.034L1019.28 380.208ZM1004.82 370.224L1006.26 368.839C1002.35 364.764 999.284 359.991 997.071 354.5L995.216 355.248L993.361 355.996C995.756 361.94 999.093 367.15 1003.37 371.609L1004.82 370.224ZM995.216 355.248L997.071 354.5C994.869 349.036 993.76 343.148 993.76 336.816H991.76H989.76C989.76 343.626 990.955 350.025 993.361 355.996L995.216 355.248ZM1008.14 337.456H1006.14C1006.14 341.904 1007.01 346.142 1008.74 350.153L1010.58 349.36L1012.41 348.567C1010.9 345.069 1010.14 341.371 1010.14 337.456H1008.14ZM1010.58 349.36L1008.74 350.153C1010.45 354.12 1012.76 357.611 1015.67 360.608L1017.1 359.216L1018.54 357.824C1015.98 355.189 1013.94 352.109 1012.41 348.567L1010.58 349.36ZM1017.1 359.216L1015.67 360.608C1018.57 363.605 1021.94 365.97 1025.75 367.694L1026.58 365.872L1027.4 364.05C1024.04 362.532 1021.09 360.459 1018.54 357.824L1017.1 359.216ZM1026.58 365.872L1025.75 367.694C1029.61 369.438 1033.73 370.304 1038.1 370.304V368.304V366.304C1034.27 366.304 1030.71 365.549 1027.4 364.05L1026.58 365.872ZM1038.1 368.304L1038.14 370.304C1042.43 370.212 1046.51 369.251 1050.35 367.422L1049.49 365.616L1048.63 363.81C1045.3 365.394 1041.78 366.225 1038.05 366.304L1038.1 368.304ZM1049.49 365.616L1050.35 367.422C1054.15 365.611 1057.47 363.204 1060.29 360.201L1058.83 358.832L1057.37 357.463C1054.9 360.092 1051.99 362.208 1048.63 363.81L1049.49 365.616ZM1058.83 358.832L1060.29 360.203C1063.19 357.12 1065.46 353.583 1067.08 349.605L1065.23 348.848L1063.38 348.091C1061.94 351.623 1059.94 354.742 1057.38 357.461L1058.83 358.832ZM1065.23 348.848L1067.09 349.591C1068.73 345.499 1069.5 341.222 1069.41 336.775L1067.41 336.816L1065.41 336.857C1065.49 340.773 1064.81 344.517 1063.38 348.105L1065.23 348.848ZM1067.41 336.816H1069.41C1069.41 332.368 1068.54 328.13 1066.81 324.119L1064.98 324.912L1063.14 325.705C1064.65 329.203 1065.41 332.901 1065.41 336.816H1067.41ZM1064.98 324.912L1066.81 324.119C1065.1 320.146 1062.78 316.689 1059.86 313.77L1058.45 315.184L1057.03 316.598C1059.58 319.14 1061.61 322.168 1063.14 325.705L1064.98 324.912ZM1058.45 315.184L1059.88 313.792C1056.97 310.787 1053.56 308.422 1049.66 306.699L1048.85 308.528L1048.04 310.357C1051.48 311.877 1054.46 313.949 1057.01 316.576L1058.45 315.184ZM1048.85 308.528L1049.67 306.706C1045.82 304.965 1041.75 304.096 1037.46 304.096V306.096V308.096C1041.19 308.096 1044.7 308.848 1048.02 310.35L1048.85 308.528ZM1037.46 306.096L1037.41 304.096C1033.12 304.188 1029.05 305.149 1025.2 306.978L1026.06 308.784L1026.92 310.59C1030.25 309.006 1033.77 308.175 1037.5 308.096L1037.46 306.096ZM1026.06 308.784L1025.24 306.962C1021.41 308.695 1018.07 311.118 1015.24 314.22L1016.72 315.568L1018.2 316.916C1020.66 314.216 1023.55 312.116 1026.89 310.606L1026.06 308.784ZM1016.72 315.568L1015.26 314.199C1012.44 317.202 1010.22 320.697 1008.6 324.667L1010.45 325.424L1012.3 326.181C1013.75 322.642 1015.71 319.566 1018.18 316.937L1016.72 315.568ZM1010.45 325.424L1008.6 324.667C1006.96 328.674 1006.14 332.943 1006.14 337.456H1008.14H1010.14C1010.14 333.435 1010.87 329.683 1012.3 326.181L1010.45 325.424ZM1099.23 292.656L1100.64 294.07L1100.64 294.07L1099.23 292.656ZM1168.99 292.656L1167.39 293.856L1167.56 294.085L1167.79 294.256L1168.99 292.656ZM1168.35 315.696L1166.8 314.43L1166.78 314.455L1166.76 314.481L1168.35 315.696ZM1149.66 340.144L1151.21 341.405L1151.23 341.382L1151.25 341.359L1149.66 340.144ZM1128.03 341.68L1126.17 342.423L1126.27 342.668L1126.43 342.88L1128.03 341.68ZM1128.28 340.4L1129.85 341.649L1129.86 341.634L1129.87 341.618L1128.28 340.4ZM1152.86 308.4L1154.45 309.618L1156.92 306.4H1152.86V308.4ZM1115.23 308.4V306.4H1113.23V308.4H1115.23ZM1099.23 381.36L1097.63 382.56L1097.8 382.789L1098.03 382.96L1099.23 381.36ZM1098.84 380.208H1100.84V293.68H1098.84H1096.84V380.208H1098.84ZM1098.84 293.68H1100.84C1100.84 293.666 1100.85 293.718 1100.81 293.806C1100.78 293.901 1100.72 293.995 1100.64 294.07L1099.23 292.656L1097.81 291.242C1097.12 291.939 1096.84 292.825 1096.84 293.68H1098.84ZM1099.23 292.656L1100.64 294.07C1100.66 294.048 1100.65 294.072 1100.58 294.1C1100.52 294.13 1100.44 294.144 1100.38 294.144V292.144V290.144C1099.35 290.144 1098.48 290.579 1097.81 291.242L1099.23 292.656ZM1100.38 292.144V294.144H1167.96V292.144V290.144H1100.38V292.144ZM1167.96 292.144V294.144C1167.9 294.144 1167.78 294.13 1167.65 294.061C1167.51 293.992 1167.42 293.904 1167.39 293.856L1168.99 292.656L1170.59 291.456C1169.95 290.611 1169.02 290.144 1167.96 290.144V292.144ZM1168.99 292.656L1167.79 294.256C1167.74 294.22 1167.65 294.137 1167.58 293.998C1167.51 293.86 1167.5 293.74 1167.5 293.68H1169.5H1171.5C1171.5 292.624 1171.03 291.69 1170.19 291.056L1168.99 292.656ZM1169.5 293.68H1167.5V312.496H1169.5H1171.5V293.68H1169.5ZM1169.5 312.496H1167.5C1167.5 313.221 1167.28 313.842 1166.8 314.43L1168.35 315.696L1169.9 316.962C1170.95 315.672 1171.5 314.16 1171.5 312.496H1169.5ZM1168.35 315.696L1166.76 314.481L1148.07 338.929L1149.66 340.144L1151.25 341.359L1169.94 316.911L1168.35 315.696ZM1149.66 340.144L1148.11 338.883C1147.36 339.797 1146.52 340.192 1145.44 340.192V342.192V344.192C1147.77 344.192 1149.74 343.221 1151.21 341.405L1149.66 340.144ZM1145.44 342.192V340.192H1129.18V342.192V344.192H1145.44V342.192ZM1129.18 342.192V340.192C1129.14 340.192 1129.21 340.186 1129.32 340.236C1129.45 340.292 1129.55 340.382 1129.63 340.48L1128.03 341.68L1126.43 342.88C1127.14 343.828 1128.18 344.192 1129.18 344.192V342.192ZM1128.03 341.68L1129.88 340.937C1129.94 341.063 1129.96 341.243 1129.93 341.432C1129.89 341.602 1129.82 341.675 1129.85 341.649L1128.28 340.4L1126.72 339.151C1126.03 340.013 1125.68 341.19 1126.17 342.423L1128.03 341.68ZM1128.28 340.4L1129.87 341.618L1154.45 309.618L1152.86 308.4L1151.27 307.182L1126.7 339.182L1128.28 340.4ZM1152.86 308.4V306.4H1115.23V308.4V310.4H1152.86V308.4ZM1115.23 308.4H1113.23V380.208H1115.23H1117.23V308.4H1115.23ZM1115.23 380.208H1113.23C1113.23 380.289 1113.22 380.274 1113.24 380.201C1113.27 380.116 1113.34 379.997 1113.46 379.89C1113.69 379.675 1113.85 379.744 1113.56 379.744V381.744V383.744C1114.39 383.744 1115.38 383.557 1116.17 382.83C1116.99 382.074 1117.23 381.071 1117.23 380.208H1115.23ZM1113.56 381.744V379.744H1100.38V381.744V383.744H1113.56V381.744ZM1100.38 381.744V379.744C1100.37 379.744 1100.37 379.744 1100.38 379.744C1100.39 379.745 1100.39 379.747 1100.4 379.751C1100.41 379.754 1100.42 379.758 1100.43 379.76C1100.43 379.763 1100.43 379.764 1100.43 379.76L1099.23 381.36L1098.03 382.96C1098.72 383.476 1099.52 383.744 1100.38 383.744V381.744ZM1099.23 381.36L1100.83 380.16C1100.82 380.155 1100.82 380.155 1100.83 380.16C1100.83 380.166 1100.83 380.174 1100.84 380.184C1100.84 380.193 1100.84 380.202 1100.84 380.208C1100.84 380.214 1100.84 380.214 1100.84 380.208H1098.84H1096.84C1096.84 381.067 1097.11 381.872 1097.63 382.56L1099.23 381.36ZM1183.23 292.912L1181.81 291.498L1181.81 291.498L1183.23 292.912ZM1199.23 308.656V306.656H1197.23V308.656H1199.23ZM1199.23 329.136H1197.23V331.136H1199.23V329.136ZM1199.23 345.392V343.392H1197.23V345.392H1199.23ZM1199.23 365.744H1197.23V367.744H1199.23V365.744ZM1244.67 366.384L1242.81 367.127L1242.87 367.276L1242.95 367.413L1244.67 366.384ZM1244.54 367.536L1243.13 366.122L1243.03 366.216L1242.95 366.323L1244.54 367.536ZM1235.07 379.952L1236.62 381.213L1236.64 381.189L1236.66 381.165L1235.07 379.952ZM1183.23 381.616L1181.63 382.816L1181.8 383.045L1182.03 383.216L1183.23 381.616ZM1182.84 293.936H1184.84C1184.84 293.922 1184.85 293.974 1184.81 294.062C1184.78 294.157 1184.72 294.251 1184.64 294.326L1183.23 292.912L1181.81 291.498C1181.12 292.195 1180.84 293.081 1180.84 293.936H1182.84ZM1183.23 292.912L1184.64 294.326C1184.66 294.304 1184.65 294.328 1184.58 294.356C1184.52 294.386 1184.44 294.4 1184.38 294.4V292.4V290.4C1183.35 290.4 1182.48 290.835 1181.81 291.498L1183.23 292.912ZM1184.38 292.4V294.4H1239.68V292.4V290.4H1184.38V292.4ZM1239.68 292.4V294.4C1239.88 294.4 1239.67 294.45 1239.41 294.198C1239.16 293.947 1239.21 293.732 1239.21 293.936H1241.21H1243.21C1243.21 293.116 1243.01 292.133 1242.24 291.37C1241.48 290.606 1240.5 290.4 1239.68 290.4V292.4ZM1241.21 293.936H1239.21V307.12H1241.21H1243.21V293.936H1241.21ZM1241.21 307.12H1239.21C1239.21 307.324 1239.16 307.109 1239.41 306.858C1239.67 306.606 1239.88 306.656 1239.68 306.656V308.656V310.656C1240.5 310.656 1241.48 310.45 1242.24 309.686C1243.01 308.923 1243.21 307.94 1243.21 307.12H1241.21ZM1239.68 308.656V306.656H1199.23V308.656V310.656H1239.68V308.656ZM1199.23 308.656H1197.23V329.136H1199.23H1201.23V308.656H1199.23ZM1199.23 329.136V331.136H1231.23V329.136V327.136H1199.23V329.136ZM1231.23 329.136V331.136C1231.43 331.136 1231.22 331.186 1230.97 330.934C1230.71 330.683 1230.76 330.468 1230.76 330.672H1232.76H1234.76C1234.76 329.852 1234.56 328.869 1233.79 328.106C1233.03 327.342 1232.05 327.136 1231.23 327.136V329.136ZM1232.76 330.672H1230.76V343.728H1232.76H1234.76V330.672H1232.76ZM1232.76 343.728H1230.76C1230.76 344.012 1230.7 343.853 1230.91 343.619C1231.02 343.503 1231.14 343.437 1231.22 343.407C1231.29 343.38 1231.31 343.392 1231.23 343.392V345.392V347.392C1232.09 347.392 1233.09 347.151 1233.85 346.333C1234.58 345.545 1234.76 344.553 1234.76 343.728H1232.76ZM1231.23 345.392V343.392H1199.23V345.392V347.392H1231.23V345.392ZM1199.23 345.392H1197.23V365.744H1199.23H1201.23V345.392H1199.23ZM1199.23 365.744V367.744H1243.64V365.744V363.744H1199.23V365.744ZM1243.64 365.744V367.744C1243.63 367.744 1243.45 367.739 1243.22 367.6C1242.98 367.451 1242.86 367.25 1242.81 367.127L1244.67 366.384L1246.52 365.641C1246.31 365.092 1245.92 364.571 1245.34 364.208C1244.78 363.855 1244.17 363.744 1243.64 363.744V365.744ZM1244.67 366.384L1242.95 367.413C1242.92 367.36 1242.8 367.126 1242.84 366.771C1242.88 366.409 1243.06 366.19 1243.13 366.122L1244.54 367.536L1245.95 368.95C1246.36 368.54 1246.73 367.959 1246.82 367.213C1246.9 366.474 1246.67 365.835 1246.38 365.355L1244.67 366.384ZM1244.54 367.536L1242.95 366.323L1233.48 378.739L1235.07 379.952L1236.66 381.165L1246.13 368.749L1244.54 367.536ZM1235.07 379.952L1233.52 378.691C1232.77 379.605 1231.93 380 1230.84 380V382V384C1233.17 384 1235.14 383.029 1236.62 381.213L1235.07 379.952ZM1230.84 382V380H1184.38V382V384H1230.84V382ZM1184.38 382V380C1184.37 380 1184.37 380 1184.38 380C1184.39 380.001 1184.39 380.003 1184.4 380.007C1184.41 380.01 1184.42 380.014 1184.43 380.016C1184.43 380.019 1184.43 380.02 1184.43 380.016L1183.23 381.616L1182.03 383.216C1182.72 383.732 1183.52 384 1184.38 384V382ZM1183.23 381.616L1184.83 380.416C1184.82 380.411 1184.82 380.411 1184.83 380.416C1184.83 380.422 1184.83 380.43 1184.84 380.44C1184.84 380.449 1184.84 380.458 1184.84 380.464C1184.84 380.47 1184.84 380.47 1184.84 380.464H1182.84H1180.84C1180.84 381.323 1181.11 382.128 1181.63 382.816L1183.23 381.616ZM1182.84 380.464H1184.84V293.936H1182.84H1180.84V380.464H1182.84ZM1257.35 292.656L1258.77 294.07L1258.77 294.07L1257.35 292.656ZM1327.11 292.656L1325.51 293.856L1325.68 294.085L1325.91 294.256L1327.11 292.656ZM1326.47 315.696L1324.93 314.43L1324.9 314.456L1324.88 314.483L1326.47 315.696ZM1306.25 342.192L1304.66 340.979L1303.73 342.194L1304.66 343.408L1306.25 342.192ZM1335.18 379.952L1336.89 378.923L1336.83 378.826L1336.76 378.736L1335.18 379.952ZM1335.18 381.232L1333.46 380.203L1333.42 380.269L1333.39 380.338L1335.18 381.232ZM1313.8 379.696L1312.22 380.915L1312.23 380.936L1312.25 380.957L1313.8 379.696ZM1285.77 343.216L1287.35 341.997L1287.32 341.947L1287.27 341.899L1285.77 343.216ZM1285.77 341.296L1287.18 342.71L1287.28 342.617L1287.36 342.513L1285.77 341.296ZM1310.99 308.4L1312.57 309.617L1315.04 306.4H1310.99V308.4ZM1273.35 308.4V306.4H1271.35V308.4H1273.35ZM1257.35 381.36L1255.75 382.56L1255.92 382.789L1256.15 382.96L1257.35 381.36ZM1256.97 293.68H1258.97C1258.97 293.666 1258.97 293.718 1258.94 293.806C1258.9 293.901 1258.84 293.995 1258.77 294.07L1257.35 292.656L1255.94 291.242C1255.24 291.939 1254.97 292.825 1254.97 293.68H1256.97ZM1257.35 292.656L1258.77 294.07C1258.79 294.048 1258.77 294.072 1258.71 294.1C1258.64 294.13 1258.57 294.144 1258.51 294.144V292.144V290.144C1257.48 290.144 1256.6 290.579 1255.94 291.242L1257.35 292.656ZM1258.51 292.144V294.144H1326.09V292.144V290.144H1258.51V292.144ZM1326.09 292.144V294.144C1326.03 294.144 1325.91 294.13 1325.77 294.061C1325.63 293.992 1325.55 293.904 1325.51 293.856L1327.11 292.656L1328.71 291.456C1328.08 290.611 1327.15 290.144 1326.09 290.144V292.144ZM1327.11 292.656L1325.91 294.256C1325.86 294.22 1325.78 294.137 1325.71 293.998C1325.64 293.86 1325.62 293.74 1325.62 293.68H1327.62H1329.62C1329.62 292.624 1329.16 291.69 1328.31 291.056L1327.11 292.656ZM1327.62 293.68H1325.62V312.496H1327.62H1329.62V293.68H1327.62ZM1327.62 312.496H1325.62C1325.62 313.221 1325.41 313.842 1324.93 314.43L1326.47 315.696L1328.02 316.962C1329.08 315.672 1329.62 314.16 1329.62 312.496H1327.62ZM1326.47 315.696L1324.88 314.483L1304.66 340.979L1306.25 342.192L1307.84 343.405L1328.06 316.909L1326.47 315.696ZM1306.25 342.192L1304.66 343.408L1333.59 381.168L1335.18 379.952L1336.76 378.736L1307.84 340.976L1306.25 342.192ZM1335.18 379.952L1333.46 380.981C1333.43 380.936 1333.37 380.798 1333.37 380.592C1333.37 380.386 1333.43 380.248 1333.46 380.203L1335.18 381.232L1336.89 382.261C1337.18 381.789 1337.37 381.224 1337.37 380.592C1337.37 379.96 1337.18 379.395 1336.89 378.923L1335.18 379.952ZM1335.18 381.232L1333.39 380.338C1333.46 380.195 1333.6 380.011 1333.83 379.88C1334.05 379.755 1334.23 379.744 1334.28 379.744V381.744V383.744C1334.76 383.744 1335.3 383.647 1335.82 383.352C1336.35 383.05 1336.72 382.61 1336.97 382.126L1335.18 381.232ZM1334.28 381.744V379.744H1318.03V381.744V383.744H1334.28V381.744ZM1318.03 381.744V379.744C1316.94 379.744 1316.1 379.349 1315.35 378.435L1313.8 379.696L1312.25 380.957C1313.72 382.773 1315.69 383.744 1318.03 383.744V381.744ZM1313.8 379.696L1315.39 378.477L1287.35 341.997L1285.77 343.216L1284.18 344.435L1312.22 380.915L1313.8 379.696ZM1285.77 343.216L1287.27 341.899C1287.16 341.771 1287.32 341.891 1287.32 342.224C1287.32 342.387 1287.28 342.525 1287.23 342.621C1287.19 342.709 1287.16 342.736 1287.18 342.71L1285.77 341.296L1284.35 339.882C1283.81 340.431 1283.32 341.22 1283.32 342.224C1283.32 343.197 1283.78 343.978 1284.26 344.533L1285.77 343.216ZM1285.77 341.296L1287.36 342.513L1312.57 309.617L1310.99 308.4L1309.4 307.183L1284.18 340.079L1285.77 341.296ZM1310.99 308.4V306.4H1273.35V308.4V310.4H1310.99V308.4ZM1273.35 308.4H1271.35V380.208H1273.35H1275.35V308.4H1273.35ZM1273.35 380.208H1271.35C1271.35 380.289 1271.34 380.274 1271.37 380.201C1271.4 380.116 1271.46 379.997 1271.58 379.89C1271.81 379.675 1271.97 379.744 1271.69 379.744V381.744V383.744C1272.51 383.744 1273.51 383.557 1274.29 382.83C1275.11 382.074 1275.35 381.071 1275.35 380.208H1273.35ZM1271.69 381.744V379.744H1258.51V381.744V383.744H1271.69V381.744ZM1258.51 381.744V379.744C1258.5 379.744 1258.5 379.744 1258.5 379.744C1258.51 379.745 1258.52 379.747 1258.53 379.751C1258.54 379.754 1258.55 379.758 1258.55 379.76C1258.56 379.763 1258.56 379.764 1258.55 379.76L1257.35 381.36L1256.15 382.96C1256.84 383.476 1257.65 383.744 1258.51 383.744V381.744ZM1257.35 381.36L1258.95 380.16C1258.95 380.155 1258.95 380.155 1258.95 380.16C1258.96 380.166 1258.96 380.174 1258.96 380.184C1258.97 380.193 1258.97 380.202 1258.97 380.208C1258.97 380.214 1258.97 380.214 1258.97 380.208H1256.97H1254.97C1254.97 381.067 1255.24 381.872 1255.75 382.56L1257.35 381.36ZM1256.97 380.208H1258.97V293.68H1256.97H1254.97V380.208H1256.97Z" fill="#302E2E" mask="url(#path-3-outside-1_98_177)"/>
<defs>
<linearGradient id="paint0_linear_98_177" x1="0" y1="265.5" x2="1920" y2="265.5" gradientUnits="userSpaceOnUse">
<stop stop-color="white"/>
<stop offset="1" stop-color="#E4E4E4"/>
</linearGradient>
</defs>
</svg>
